<svg xmlns="http://www.w3.org/2000/svg" viewBox="0 0 380 162.11"><defs><style>.cls-1{isolation:isolate;}.cls-2{fill:#f4eee6;}.cls-3{fill:#7eba01;}.cls-4,.cls-5{fill:#afe1f5;}.cls-4{opacity:0.32;}.cls-10,.cls-4,.cls-5{mix-blend-mode:multiply;}.cls-6{fill:#ffedca;}.cls-7{fill:#ffd67b;}.cls-10,.cls-8{fill:#f3be65;}.cls-9{fill:#894d16;}.cls-10,.cls-11{opacity:0.58;}.cls-12{opacity:0.39;}.cls-13{opacity:0.15;}</style></defs><title>Sin título-7</title><g class="cls-1"><g id="Capa_1" data-name="Capa 1"><path id="_Trazado_" data-name="&lt;Trazado&gt;" class="cls-2" d="M199.34,171.17c-104.93,0-190-3.25-190-7.25s85.07-7.25,190-7.25,190,3.24,190,7.25-85.06,7.25-190,7.25" transform="translate(-9.34 -9.06)"/><g id="_Grupo_" data-name="&lt;Grupo&gt;"><path id="_Trazado_compuesto_" data-name="&lt;Trazado compuesto&gt;" class="cls-3" d="M355.66,106.63V77H322.05l.19,29.62H296l39-82.25H300.23L267.05,92.51l-8.43,17.31v24.62h63.43v30.42h33.61V134.44h18V106.63Z" transform="translate(-9.34 -9.06)"/><path id="_Trazado_2" data-name="&lt;Trazado&gt;" class="cls-4" d="M277.72,134.44a29.3,29.3,0,0,0-2.09-14.22A45.7,45.7,0,0,1,273,134.44H258.62V109.82l8.43-17.31A34.12,34.12,0,0,1,273,103.36c.25.67.47,1.34.68,2l0,.08c.37,1.23.69,2.46,1,3.7a.13.13,0,0,0,0,.06l.08.37c.07.37.16.74.21,1.11s.13.73.19,1.1c0,.06,0,.13,0,.2s0,.06,0,.09c.06.43.12.86.17,1.29v.08a.07.07,0,0,1,0,.05v0s7.12,7,7.16,21Z" transform="translate(-9.34 -9.06)"/></g><path id="_Trazado_compuesto_2" data-name="&lt;Trazado compuesto&gt;" class="cls-3" d="M92.08,24.38l-39,82.25H79.27L79.08,77h33.61v29.62h18v27.81h-18v30.42H79.08V134.44H15.65V109.82L57.26,24.38Z" transform="translate(-9.34 -9.06)"/><path id="_Trazado_compuesto_3" data-name="&lt;Trazado compuesto&gt;" class="cls-3" d="M196,9.06c-39.25,0-60.63,27.79-60.63,78.28,0,16.27,2.22,30.21,6.55,41.62,9.09,24,27.48,36.87,54.08,36.87,15,0,27.39-4.17,37-12.19a49.25,49.25,0,0,0,4.74-4.52,53.64,53.64,0,0,0,4.16-5.12c.63-.88,1.25-1.78,1.83-2.72,8.05-12.66,12.4-30,12.68-51.64,0-.76,0-1.53,0-2.3C256.39,36.85,234.78,9.06,196,9.06ZM174.23,99.59c-.21-3.78-.31-7.85-.31-12.25,0-35.5,6.39-50.06,22.05-50.06,13.87,0,20.43,11.74,21.62,39.83.15,3.2.21,6.6.21,10.23,0,35.27-6.38,50-21.83,50C182.27,137.39,175.66,126.07,174.23,99.59Z" transform="translate(-9.34 -9.06)"/><g id="_Grupo_2" data-name="&lt;Grupo&gt;"><path id="_Trazado_3" data-name="&lt;Trazado&gt;" class="cls-5" d="M241.86,144a53.64,53.64,0,0,1-4.16,5.12c-11.94,1.84-28.62,7.1-29.84-3.44a4.4,4.4,0,0,1,0-1.84C208.79,139.26,230.17,144.55,241.86,144Z" transform="translate(-9.34 -9.06)"/><path id="_Trazado_4" data-name="&lt;Trazado&gt;" class="cls-5" d="M256.37,89.64c-.28,21.62-4.63,39-12.67,51.64-6.44.3-20.55-3.3-26.77-.08a1.17,1.17,0,0,1-.3.14c-.27.12-.54.2-.81.29l-.11,0-.11,0-.26.06-.27.06-.23.05-.25,0-.42.08h0l-.45.08h0q-1.32.18-2.64.27h0l-.66,0h0c-9.57.55-22.71.86-31.52-3.29l-2.31.05h-.34l-.9,0h-.32a71.7,71.7,0,0,1-22.29-3.42c-.65-.19-1.28-.45-1.93-.67l-.68-.26-.16-.06c-.56-.22-1.1-.47-1.66-.7a29.28,29.28,0,0,1-2.66-1.4.41.41,0,0,1-.11-.07c-.41-.25-.8-.51-1.19-.79l-.29-.23-.12-.09-.43-.37-.25-.24a4.65,4.65,0,0,1-.72-.82l-.07-.11c-2.23-2.54.89-9.68,2.11-11.75l.1-.25c-2.25-7.23-1-11.5-1-11.5,3.39.84,6.12,4.16,6.12,4.16,2.38-2.92,7.51-4.21,11.09-4.38-.05-5.51,1.15-6.62,1.15-6.62,9.34,3,2.18,7.86,12.31,0,.85,15.76,5.24,43.73,27.81,36.88,19.89-6,16.2-44.79,15.56-59.36,14-3.07,30.31-.1,38.77,12.53C256.09,111.26,253,84.58,256.37,89.64Z" transform="translate(-9.34 -9.06)"/></g><g id="_Grupo_3" data-name="&lt;Grupo&gt;"><path id="_Trazado_5" data-name="&lt;Trazado&gt;" class="cls-6" d="M256.57,120.2a16.66,16.66,0,0,1-1.38,2.54,17.67,17.67,0,0,1-1.45,1.93,18.25,18.25,0,0,1-3.51,3.14c-9.69,6.69-24.83,4.41-30.71,5-.81.07-2.08.15-3.7.23l-1,.05-5.58.21c-10.26.36-24.95.71-32.87.88l-5.58.12h-.6A78.47,78.47,0,0,1,148,130.78a29.86,29.86,0,0,1-8.19-3.89,10,10,0,0,1-1.55-1.41c-.15-.19-.29-.37-.41-.55l-.13-.23c-2.2-4,2.21-11.24,2.43-11.61h0c-2.28-7.26-1.05-11.55-1.05-11.55,3.39.84,6.12,4.16,6.12,4.16a7.77,7.77,0,0,1,1.79-1.57,12.85,12.85,0,0,1,1.83-1,17.78,17.78,0,0,1,2.14-.78,26.83,26.83,0,0,1,3.28-.77c1.22-.21,2.05-.27,2.05-.27-.05-5.51,1.65-7.76,1.65-7.76,2.45.78,4.54,6.44,5.42,6.39.7,0,1.8-2,10.2-8.08l1.88-1.33c1.63-1.14,3.48-2.4,5.61-3.81l.86-.56,1.4-.9c1.8-1.15,3.66-2.28,5.57-3.36.85-.49,1.72-1,2.6-1.45q2.15-1.15,4.35-2.21c.72-.34,1.43-.67,2.15-1,1.28-.58,2.58-1.12,3.88-1.64,1.76-.68,3.53-1.31,5.33-1.86s3.88-1.1,5.85-1.51h0l.42-.09a53.35,53.35,0,0,1,9-1H223a43.16,43.16,0,0,1,6.31.36A41.85,41.85,0,0,1,238,73.54a28.39,28.39,0,0,1,14.39,12,38.57,38.57,0,0,1,2.94,5.63c.34.78.65,1.58.93,2.38a44,44,0,0,1,2.43,11.26A31.79,31.79,0,0,1,256.57,120.2Z" transform="translate(-9.34 -9.06)"/><path id="_Trazado_6" data-name="&lt;Trazado&gt;" class="cls-7" d="M255.19,122.74a17.67,17.67,0,0,1-1.45,1.93c-9,10.48-27.57,7.48-34.22,8.1-.81.07-2.08.15-3.7.23l-1,.05-5.58.21c-10.26.36-24.95.71-32.87.88l-5.58.12h-.6A78.47,78.47,0,0,1,148,130.78a29.86,29.86,0,0,1-8.19-3.89,10,10,0,0,1-1.55-1.41c-.15-.19-.29-.37-.41-.55-1.17-4.1,2.39-12.13,2.39-12.13-2.28-7.26-.61-10.1-.61-10.1,3.39.84,6.12,4.16,6.12,4.16a7.77,7.77,0,0,1,1.79-1.57,12.8,12.8,0,0,1,1.83-1,17.85,17.85,0,0,1,2.14-.79,26.83,26.83,0,0,1,3.28-.77c1.22-.2,2.05-.27,2.05-.27-.06-5.51,1.48-7.73,1.48-7.73,2.44.78,4.71,6.42,5.59,6.37.7,0,1.8-2,10.2-8.08L176,91.7c1.63-1.14,3.48-2.4,5.61-3.8l.86-.57,1.4-.89c1.8-1.16,3.66-2.28,5.56-3.37.86-.49,1.73-1,2.61-1.45q3.18-1.71,6.5-3.2c1.28-.58,2.58-1.12,3.88-1.63,1.76-.69,3.53-1.32,5.33-1.87,2.08-.63,4.18-1.17,6.3-1.59a51.85,51.85,0,0,1,9.52-1,43.22,43.22,0,0,1,6.32.36,41.85,41.85,0,0,1,8.69,2.06,28.44,28.44,0,0,1,14.39,12,38.32,38.32,0,0,1,2.42,4.46C260,102.21,260,115.32,255.19,122.74Z" transform="translate(-9.34 -9.06)"/><path id="_Trazado_7" data-name="&lt;Trazado&gt;" class="cls-8" d="M265.74,124.57c0,14.06-13.54,19.91-31.64,23.3-15.84,3-23.2.84-24.09-3.24a4.56,4.56,0,0,1,0-1.84c1-5.21,20-2.6,32-4s18.1-5.72,18.88-14.32A28.62,28.62,0,0,0,258.71,110l-.12-5.88,0-.62S265.74,110.51,265.74,124.57Z" transform="translate(-9.34 -9.06)"/><path id="_Trazado_8" data-name="&lt;Trazado&gt;" class="cls-7" d="M263,121.44c0,14.06-13.73,20.68-31.82,24.06-10.55,2-20.38,2-21.17-.87a4.56,4.56,0,0,1,0-1.84c1-5.21,20-2.6,32-4s18.1-5.72,18.88-14.32A28.62,28.62,0,0,0,258.71,110l-.12-5.88c.2.34.39.69.6,1.08A34.36,34.36,0,0,1,263,121.44Z" transform="translate(-9.34 -9.06)"/><path id="_Trazado_9" data-name="&lt;Trazado&gt;" class="cls-7" d="M264,124.63c0,14.06-13.41,17.51-31.5,20.89-10.55,2-18.51.91-22.13-.7a5.07,5.07,0,0,1,.1-1.15c1-5.21,20-2.6,32-4s18.09-5.73,18.88-14.32a32.68,32.68,0,0,0-2.58-15.56l-.25-6.23C263.08,108.13,264,117.14,264,124.63Z" transform="translate(-9.34 -9.06)"/><g id="_Grupo_4" data-name="&lt;Grupo&gt;"><path id="_Trazado_10" data-name="&lt;Trazado&gt;" class="cls-8" d="M180.34,101.39a21.45,21.45,0,0,0-6.79-9.53l1.88-1.33A25.38,25.38,0,0,1,180.34,101.39Z" transform="translate(-9.34 -9.06)"/><path id="_Trazado_11" data-name="&lt;Trazado&gt;" class="cls-8" d="M188.88,97.88A25.68,25.68,0,0,0,181,86.72l.86-.56,1.4-.9A30.49,30.49,0,0,1,188.88,97.88Z" transform="translate(-9.34 -9.06)"/><path id="_Trazado_12" data-name="&lt;Trazado&gt;" class="cls-8" d="M197.61,93.72c-2.58-6.53-6.11-10-8.74-11.82.85-.49,1.72-1,2.6-1.45C196.32,85.94,197.61,93.72,197.61,93.72Z" transform="translate(-9.34 -9.06)"/><path id="_Trazado_13" data-name="&lt;Trazado&gt;" class="cls-8" d="M210,92.73c-3.6-9.11-8.68-13.48-12-15.48,1.28-.58,2.58-1.12,3.88-1.64C208.2,82.37,209.94,92.36,210,92.73Z" transform="translate(-9.34 -9.06)"/><path id="_Trazado_14" data-name="&lt;Trazado&gt;" class="cls-8" d="M224.43,94.88c-5.28-13.37-13-18.95-17.25-21.13q3.12-1,6.3-1.6C222,81,224.34,94.39,224.43,94.88Z" transform="translate(-9.34 -9.06)"/><path id="_Trazado_15" data-name="&lt;Trazado&gt;" class="cls-8" d="M234.66,94.15c-2.35-12.71-7.84-19.62-11.65-23a43.16,43.16,0,0,1,6.31.36C235,81.73,234.66,94.15,234.66,94.15Z" transform="translate(-9.34 -9.06)"/></g><path id="_Trazado_16" data-name="&lt;Trazado&gt;" class="cls-8" d="M170.17,134.25c-16.45-.37-28.65-4.87-31.95-8.77l1.8-1.73s0,.91,2.37,1.37,0-4.69,1.37-6.54a4.53,4.53,0,0,1,7.1-.62c2.76,2.6,3.27,13,18.69,12Z" transform="translate(-9.34 -9.06)"/><path id="_Trazado_17" data-name="&lt;Trazado&gt;" class="cls-8" d="M255.19,122.74a17.67,17.67,0,0,1-1.45,1.93c-9,10.48-27.57,7.48-34.22,8.1-.81.07-2.08.15-3.7.23l-1,.05-5.58.21c-10.26.36-24.95.71-32.87.88l-5.58.12h-.6A78.47,78.47,0,0,1,148,130.78a151.93,151.93,0,0,0,20.37.55c8.59-.58,29.39-19.42,45-16.2s49-8,39.44-28.71l-.38-.86C259.89,97.38,260.9,114,255.19,122.74Z" transform="translate(-9.34 -9.06)"/><path id="_Trazado_18" data-name="&lt;Trazado&gt;" class="cls-8" d="M210.45,133.26c-14.68.52-38.44,1-38.44,1h-.33a7.09,7.09,0,0,1,.69-11.67A17.62,17.62,0,0,1,183,120c10,.85,11.72,9.11,20.44,10.87C207.27,131.64,209.33,132.46,210.45,133.26Z" transform="translate(-9.34 -9.06)"/><path id="_Trazado_19" data-name="&lt;Trazado&gt;" class="cls-8" d="M214.8,133.05l-5.58.21c-10.26.36-24.95.71-32.87.88a7.05,7.05,0,0,1-.14-12.19,17.62,17.62,0,0,1,10.67-2.59c10,.84,11.72,9.11,20.44,10.87C211.78,131.13,213.84,132.1,214.8,133.05Z" transform="translate(-9.34 -9.06)"/><path id="_Trazado_20" data-name="&lt;Trazado&gt;" class="cls-6" d="M213.18,135.44c0,.32-.23.62-.74.88-1.2.63-3.79,1.06-7.22,1.22a75.46,75.46,0,0,1-7.73-.09c-6-.34-16.57-.08-23.24-3.27a7.06,7.06,0,0,1-3.31-9.46,7,7,0,0,1,2.73-3,17.62,17.62,0,0,1,10.67-2.59c10,.85,11.72,9.12,20.44,10.87l.78.16C213.48,131.92,213.05,133.86,213.18,135.44Z" transform="translate(-9.34 -9.06)"/><path id="_Trazado_21" data-name="&lt;Trazado&gt;" class="cls-7" d="M212.44,136.32l-.24.12-.27.11a4.29,4.29,0,0,1-.47.16l-.35.1c-.26.07-.55.13-.86.19l-.29.06c-.71.13-1.51.23-2.4.32l-1,.08-.68,0-.62,0a75.46,75.46,0,0,1-7.73-.09c-6-.34-16.57-.08-23.24-3.27a7.06,7.06,0,0,1-3.31-9.46,7.19,7.19,0,0,1,2-1.8,17.67,17.67,0,0,1,10.67-2.59c10,.85,11.71,9.12,20.43,10.88l.79.16,1.25.28C212.3,133.2,212.36,134.89,212.44,136.32Z" transform="translate(-9.34 -9.06)"/><path id="_Trazado_22" data-name="&lt;Trazado&gt;" class="cls-8" d="M255.67,108.88a56.8,56.8,0,0,1-1.93,15.79c-9,10.48-27.57,7.48-34.22,8.1-.81.07-2.08.15-3.7.23a5.76,5.76,0,0,1,.69-2.35c1.08-2.05,12.69-2.54,12-4.1s-5.85-2.44-5.85-12.79v-.64A15.9,15.9,0,0,1,237.06,98C244.51,97.22,255.67,98,255.67,108.88Z" transform="translate(-9.34 -9.06)"/><path id="_Trazado_23" data-name="&lt;Trazado&gt;" class="cls-6" d="M258.84,108.88c0,.44,0,.87,0,1.3s0,.84-.05,1.25c-.61,12.45-5.61,20.3-9.82,23.1a9.66,9.66,0,0,1-1.21.67l-.31.12-.45.15-.51.12h-.06a38.75,38.75,0,0,1-4.33.64H242c-4.87.46-10.56.37-16.45.37a13.65,13.65,0,0,1-3.74-.44c-3.71-1.07-3.58-3.28-2.12-5.52s12.7-2.54,12-4.1-5.86-2.44-5.86-12.79c0-.22,0-.43,0-.64A15.86,15.86,0,0,1,240.23,98c3.77-.38,8.48-.38,12.21,1.13h0a11.65,11.65,0,0,1,2.7,1.51c.22.18.44.36.64.55s.35.32.51.49l.46.53c.13.18.27.35.38.53l.07.1.27.43a6.87,6.87,0,0,1,.45.9,4.12,4.12,0,0,1,.23.58.08.08,0,0,1,0,.06c.09.24.17.48.24.74s.12.51.18.77a.43.43,0,0,1,0,0c0,.15.05.31.08.46l.06.5C258.8,107.79,258.84,108.33,258.84,108.88Z" transform="translate(-9.34 -9.06)"/><path id="_Trazado_24" data-name="&lt;Trazado&gt;" class="cls-7" d="M258.84,108.88c0,.44,0,.87,0,1.3s0,.84-.05,1.25c-.61,12.45-5.61,20.3-9.82,23.1a9.66,9.66,0,0,1-1.21.67l-.31.12-.45.15-.51.12h-.06c-.33.1,1,.05.42.13-1.43.22-3,.39-4.75.51H242c-5.12.37-11.16.37-16.45.37a13.65,13.65,0,0,1-3.74-.44c-2.64-1.24-2-3.69-1.19-5.18,1.08-2,12.69-2.54,12-4.1s-5.86-2.44-5.86-12.78c0-.22,0-.44,0-.65a15.89,15.89,0,0,1,14.38-15.17,29.09,29.09,0,0,1,11.28.8h0a11.65,11.65,0,0,1,2.7,1.51c.22.18.44.36.64.55s.35.32.51.49l.46.53c.13.18.27.35.38.53l.07.1.27.43a6.87,6.87,0,0,1,.45.9,4.12,4.12,0,0,1,.23.58.08.08,0,0,1,0,.06c.09.24.17.48.24.74s.12.51.18.77a.43.43,0,0,1,0,0c0,.15.05.31.08.46l.06.5C258.8,107.79,258.84,108.33,258.84,108.88Z" transform="translate(-9.34 -9.06)"/><path id="_Trazado_25" data-name="&lt;Trazado&gt;" class="cls-8" d="M139.77,126.89a10,10,0,0,1-1.55-1.41,5.51,5.51,0,0,1-.54-.78c-2.2-4,2.21-11.24,2.43-11.61-.14.36-2.85,7.22-.09,10.66A2.29,2.29,0,0,1,139.77,126.89Z" transform="translate(-9.34 -9.06)"/><path id="_Trazado_26" data-name="&lt;Trazado&gt;" class="cls-8" d="M140.75,111.22s-1.12-5.22-.68-7.86a6.29,6.29,0,0,1,3.9,3.22S141.14,109.9,140.75,111.22Z" transform="translate(-9.34 -9.06)"/><path id="_Trazado_27" data-name="&lt;Trazado&gt;" class="cls-8" d="M158.32,95.06s-1.17,4.15-.92,6.45a23,23,0,0,1,4.93-.59S160.37,96.82,158.32,95.06Z" transform="translate(-9.34 -9.06)"/><g id="_Grupo_5" data-name="&lt;Grupo&gt;"><g id="_Grupo_6" data-name="&lt;Grupo&gt;"><g id="_Grupo_7" data-name="&lt;Grupo&gt;"><path id="_Trazado_28" data-name="&lt;Trazado&gt;" class="cls-9" d="M140,119a2.59,2.59,0,0,1,.2-.87,2.67,2.67,0,0,1,.18-.39,2.41,2.41,0,0,1,.27-.41,3.23,3.23,0,0,1,.35-.4,3.68,3.68,0,0,1,.44-.34,2.38,2.38,0,0,1,.5-.26,1.67,1.67,0,0,1,.53-.14,1.79,1.79,0,0,1,.51,0l.23,0,.21,0a1.71,1.71,0,0,1,.36.1,1.91,1.91,0,0,1,.25.13l.21.12-.24,0-.27,0c-.1,0-.21,0-.33,0a2.74,2.74,0,0,0-.37.08,1.94,1.94,0,0,0-.39.12l-.2.07-.19.1a2.93,2.93,0,0,0-.39.21c-.13.08-.24.18-.36.26s-.24.19-.34.29l-.31.3a3.5,3.5,0,0,0-.27.28Z" transform="translate(-9.34 -9.06)"/></g><g id="_Grupo_8" data-name="&lt;Grupo&gt;"><path id="_Trazado_29" data-name="&lt;Trazado&gt;" class="cls-9" d="M148.57,115.4a1.62,1.62,0,0,1,.18-.24,2.11,2.11,0,0,1,.26-.25,3.12,3.12,0,0,1,.38-.27,3,3,0,0,1,.51-.25,2.63,2.63,0,0,1,.6-.17,3.62,3.62,0,0,1,.67-.07,4.12,4.12,0,0,1,.7,0,5.06,5.06,0,0,1,.67.17,5.56,5.56,0,0,1,.61.25,5.29,5.29,0,0,1,.53.31,5.36,5.36,0,0,1,.43.33,1.69,1.69,0,0,1,.34.3l.24.26.19.24-.29-.11c-.18-.07-.41-.2-.71-.31-.15-.06-.31-.12-.47-.2l-.53-.18a4.58,4.58,0,0,0-.56-.16c-.19-.07-.39-.08-.58-.13s-.39,0-.58-.07-.39,0-.57,0l-.54,0-.48.1A5.37,5.37,0,0,0,148.57,115.4Z" transform="translate(-9.34 -9.06)"/></g><g id="_Grupo_9" data-name="&lt;Grupo&gt;"><path id="_Trazado_30" data-name="&lt;Trazado&gt;" class="cls-9" d="M145.32,118.84a.67.67,0,0,0-.12.9c.39.58,1.26,1.45,1.87,1.27s.84-2,.61-2.46S146.28,118,145.32,118.84Z" transform="translate(-9.34 -9.06)"/></g><g id="_Grupo_10" data-name="&lt;Grupo&gt;"><rect id="_Trazado_31" data-name="&lt;Trazado&gt;" class="cls-9" x="147.24" y="120.45" width="0.39" height="2.55" transform="translate(-45.4 58.95) rotate(-23.23)"/></g><g id="_Grupo_11" data-name="&lt;Grupo&gt;"><path id="_Trazado_32" data-name="&lt;Trazado&gt;" class="cls-9" d="M145.17,122.07a4.18,4.18,0,0,0,.8.56,3.37,3.37,0,0,0,1,.36,2.07,2.07,0,0,0,.61,0l.1,0,.07,0,.14,0a2.84,2.84,0,0,0,.31-.18,2.62,2.62,0,0,0,.44-.44,3.63,3.63,0,0,0,.33-.47,6.48,6.48,0,0,0,.47-.89,6.19,6.19,0,0,0,.32-.93l-.15.23c-.08.15-.22.35-.37.59s-.34.52-.55.81c-.1.14-.22.28-.34.42a2.19,2.19,0,0,1-.39.36.89.89,0,0,1-.18.13l-.14,0-.06,0s0,0,0,0a1.74,1.74,0,0,1-.51,0,4.7,4.7,0,0,1-.93-.22l-.65-.25Z" transform="translate(-9.34 -9.06)"/></g></g></g></g><path id="_Trazado_33" data-name="&lt;Trazado&gt;" class="cls-10" d="M222.91,75.1l-1.76,51.35s-9.88,5.57-11.47,4.88a48.12,48.12,0,0,0-6.17-1.56s23.61-50.15-7.69-51.53c.72-.34,1.43-.67,2.15-1,1.28-.58,2.58-1.12,3.88-1.64,1.76-.68,3.53-1.31,5.33-1.86s3.88-1.1,5.85-1.51h0c4.95-.65,8.7-1.09,9.4-1.11Z" transform="translate(-9.34 -9.06)"/><path id="_Trazado_34" data-name="&lt;Trazado&gt;" class="cls-3" d="M255.13,67.48c-12.73,0-25.46-.58-38.2.22a192.07,192.07,0,0,1,.87,19.64c0,21.46-2.79,36.42-8.12,44a19.44,19.44,0,0,1,2.11,1.09,10,10,0,0,1,.8.72,4.47,4.47,0,0,1,.58,2.39c.9.42,1.64,4.36,1.64,4.36a36.29,36.29,0,0,1,3.92-.43c4.59-.29,9.62-.15,13.66-.29,4.75-.17,8.74-.32,13.1-.86,6.37-12.55,10.9-31.18,10.9-51A149.12,149.12,0,0,0,255.13,67.48Z" transform="translate(-9.34 -9.06)"/><g id="_Grupo_12" data-name="&lt;Grupo&gt;"><g id="_Grupo_13" data-name="&lt;Grupo&gt;"><path id="_Trazado_compuesto_4" data-name="&lt;Trazado compuesto&gt;" class="cls-9" d="M138.65,90.36l.51,1.18L137.72,96l3-1.29.65,1.49-5.42,2.37-.52-1.19,1.44-4.5-2.75,1.2-.66-1.51Z" transform="translate(-9.34 -9.06)"/></g><g id="_Grupo_14" data-name="&lt;Grupo&gt;"><path id="_Trazado_compuesto_5" data-name="&lt;Trazado compuesto&gt;" class="cls-9" d="M146.83,75.6l.14,1.28-2.74,3.86,3.22-.34.17,1.63-5.88.61-.13-1.29,2.73-3.86-3,.32-.17-1.64Z" transform="translate(-9.34 -9.06)"/></g><g id="_Grupo_15" data-name="&lt;Grupo&gt;" class="cls-11"><path id="_Trazado_compuesto_6" data-name="&lt;Trazado compuesto&gt;" class="cls-9" d="M136.76,61.93l.1,1-2.08,2.94,2.45-.26.13,1.24-4.49.47-.1-1,2.09-2.95-2.29.24-.13-1.25Z" transform="translate(-9.34 -9.06)"/></g><g id="_Grupo_16" data-name="&lt;Grupo&gt;" class="cls-12"><path id="_Trazado_compuesto_7" data-name="&lt;Trazado compuesto&gt;" class="cls-9" d="M148.36,48.7l-.18.72L146,51l1.79.44-.23.9-3.26-.8.18-.72,2.2-1.53L145,48.83l.23-.91Z" transform="translate(-9.34 -9.06)"/></g><g id="_Grupo_17" data-name="&lt;Grupo&gt;" class="cls-13"><path id="_Trazado_compuesto_8" data-name="&lt;Trazado compuesto&gt;" class="cls-9" d="M135.89,41.82l.23.7-1,2.47,1.75-.59.29.88L134,46.36l-.24-.7,1-2.48-1.62.55-.3-.88Z" transform="translate(-9.34 -9.06)"/></g></g></g></g></svg>